<svg width="38" height="39" viewBox="0 0 38 39" fill="none" xmlns="http://www.w3.org/2000/svg">
<circle cx="19" cy="19.955" r="19" fill="#F2F2F2"/>
<g clip-path="url(#clip0)">
<path d="M26.6365 16.108V13.0671C26.6365 12.5297 26.4295 12.1145 26.0154 11.8214C25.65 11.4794 25.1872 11.3939 24.6269 11.5649L10.5962 15.7783C10.2795 15.9004 10.0176 16.1019 9.81058 16.3828C9.60353 16.6637 9.5 16.9629 9.5 17.2804V20.0283C9.5 20.3702 9.60962 20.6817 9.82885 20.9625C10.0481 21.2434 10.3282 21.4205 10.6692 21.4938L11.8385 21.8235V24.5347C11.8385 25.2187 12.0638 25.7804 12.5144 26.2201C12.9651 26.6597 13.5192 26.8796 14.1769 26.8796H15.675C16.4545 26.8796 17.1 26.5498 17.6115 25.8904L19.3288 23.6921L24.7731 25.011C24.8218 25.011 24.8888 25.0233 24.974 25.0477C25.0593 25.0721 25.1263 25.0843 25.175 25.0843C25.5891 25.0843 25.8936 24.9866 26.0885 24.7912C26.5026 24.4493 26.7096 24.034 26.7096 23.5455V20.4679C27.1724 20.3214 27.55 20.0466 27.8423 19.6436C28.1346 19.2406 28.2808 18.7948 28.2808 18.3063C28.2808 17.7934 28.1285 17.3354 27.824 16.9324C27.5196 16.5294 27.1237 16.2546 26.6365 16.108ZM11.0712 17.2804L12.6058 16.8041V20.3947L11.0712 20.0283V17.2804ZM16.3692 25.011C16.1013 25.2309 15.8699 25.3408 15.675 25.3408H14.1769C13.6654 25.3408 13.4096 25.0721 13.4096 24.5347V22.1899L17.6115 23.2891L16.3692 25.011ZM25.1019 23.7654L13.4827 20.6511H14.1769V16.3279L25.1019 13.1404V23.7654Z" fill="#333333"/>
</g>
<defs>
<clipPath id="clip0">
<rect width="19" height="17" fill="white" transform="translate(9.5 11.455)"/>
</clipPath>
</defs>
</svg>
