<svg width="22" height="23" viewBox="0 0 22 23" fill="none" xmlns="http://www.w3.org/2000/svg">
<g clip-path="url(#clip0)">
<path d="M0.916626 4.62167V10.1217H6.41663" stroke="#333333" stroke-width="2" stroke-linecap="round" stroke-linejoin="round"/>
<path d="M21.0833 19.2883V13.7883H15.5833" stroke="#333333" stroke-width="2" stroke-linecap="round" stroke-linejoin="round"/>
<path d="M18.7825 9.205C18.3176 7.89122 17.5274 6.71662 16.4858 5.7908C15.4441 4.86498 14.1849 4.21812 12.8257 3.91057C11.4664 3.60302 10.0514 3.64481 8.7127 4.03204C7.37397 4.41927 6.15514 5.13932 5.16996 6.125L0.916626 10.1217M21.0833 13.7883L16.83 17.785C15.8448 18.7707 14.6259 19.4907 13.2872 19.878C11.9485 20.2652 10.5335 20.307 9.17422 19.9994C7.81497 19.6919 6.55578 19.045 5.51414 18.1192C4.4725 17.1934 3.68236 16.0188 3.21746 14.705" stroke="#333333" stroke-width="2" stroke-linecap="round" stroke-linejoin="round"/>
</g>
<defs>
<clipPath id="clip0">
<rect width="22" height="22" fill="white" transform="translate(0 0.955002)"/>
</clipPath>
</defs>
</svg>
