<svg width="26" height="25" viewBox="0 0 26 25" fill="none" xmlns="http://www.w3.org/2000/svg">
<path d="M3.6196 8.58877C3.22064 8.76181 3.1966 9.3915 3.58595 9.56454C3.67247 9.6078 4.53769 9.62222 6.69111 9.62222H9.67611L9.83473 9.44918C10.0222 9.2521 10.051 9.03099 9.91644 8.80027C9.7434 8.51186 9.80589 8.51667 6.64785 8.51667C4.31177 8.52148 3.74457 8.53109 3.6196 8.58877Z" fill="#33D043"/>
<path d="M3.71586 11.915C3.56685 11.9439 3.33612 12.1842 3.30728 12.338C3.2496 12.6313 3.45629 12.9437 3.75431 13.0062C3.95139 13.0446 14.4109 13.0446 14.608 13.0062C14.6945 12.987 14.8243 12.91 14.906 12.8331C15.0213 12.713 15.0454 12.6505 15.0454 12.4582C15.0454 12.2659 15.0213 12.2035 14.906 12.0833C14.8243 12.0064 14.6945 11.9295 14.608 11.9102C14.4397 11.8766 3.8889 11.8814 3.71586 11.915Z" fill="#33D043"/>
<path d="M3.56686 15.3567C3.3073 15.5009 3.22077 15.8854 3.3842 16.1402C3.56686 16.4094 3.33133 16.3998 9.18115 16.3998C15.0262 16.3998 14.7954 16.4094 14.9733 16.1402C15.1415 15.8854 15.0406 15.4673 14.7762 15.3519C14.5936 15.2654 3.72068 15.275 3.56686 15.3567Z" fill="#33D043"/>
<path fill-rule="evenodd" clip-rule="evenodd" d="M4.5136 1.66224C5.67203 0.623984 5.71049 0.595143 5.95563 0.503815C6.17193 0.4221 6.55647 0.446134 6.77758 0.551883C6.86891 0.595143 7.215 0.873935 7.54666 1.16715C7.6987 1.30155 7.88406 1.46727 8.06664 1.6305C8.28237 1.82336 8.49421 2.01275 8.6426 2.14292C8.91178 2.38326 9.14731 2.58514 9.17135 2.58995C9.19057 2.59956 9.7049 2.16214 10.3105 1.61898C10.921 1.07582 11.493 0.595143 11.5843 0.551883C11.8487 0.417294 12.3246 0.436521 12.5793 0.58553C12.6899 0.652824 13.2571 1.1335 13.8387 1.65263C14.4203 2.17656 14.9106 2.60437 14.925 2.60437C14.9394 2.60437 15.3336 2.26789 15.7999 1.85932C16.7324 1.03736 16.9198 0.931616 17.3621 0.98449C17.6456 1.01814 17.9725 1.20079 18.1023 1.38826C18.1272 1.42568 18.1495 1.45161 18.1695 1.47923C18.3496 1.72836 18.3393 2.11524 18.3522 12.314C18.3547 14.1803 18.3556 15.7854 18.355 17.1432H17.2026C17.2152 11.0515 17.2159 2.16502 17.1938 2.14292C17.189 2.1333 16.8093 2.46016 16.3478 2.86874C15.4826 3.63782 15.2855 3.75799 14.9058 3.75799C14.5213 3.75799 14.1079 3.44074 12.1996 1.7007L12.0698 1.58053L11.9112 1.7055C11.8247 1.7728 11.3296 2.21021 10.8153 2.67647C10.3009 3.14272 9.79142 3.57052 9.68567 3.6282C9.54627 3.70031 9.40688 3.72915 9.18096 3.72915C8.78681 3.72915 8.61376 3.64262 8.07541 3.15234C7.96731 3.05573 7.80087 2.9063 7.61666 2.74091C7.4159 2.56066 7.19401 2.36144 7.0035 2.19099C6.63819 1.86413 6.32094 1.59495 6.30652 1.59495C6.2873 1.59495 5.78739 2.03236 5.19136 2.56591C4.081 3.56091 3.79259 3.75799 3.45612 3.75799C3.08119 3.75799 2.87931 3.63782 2.01409 2.86874C1.55265 2.46497 1.16811 2.14292 1.15849 2.15253C1.13926 2.17176 1.14888 22.7591 1.17291 22.7783C1.17772 22.7831 1.55265 22.4563 2.01409 22.0477C2.87931 21.2786 3.07639 21.1584 3.45612 21.1584C3.84066 21.1584 4.16752 21.4084 6.18635 23.2398L6.2921 23.3359L6.45073 23.2109C6.53725 23.1436 7.03234 22.7062 7.54666 22.2399C8.06099 21.7737 8.5705 21.3459 8.67625 21.2882C8.81565 21.2161 8.95504 21.1873 9.18096 21.1873C9.40688 21.1873 9.54627 21.2161 9.68567 21.2882C9.79142 21.3459 10.3009 21.7737 10.8153 22.2399C11.3296 22.7062 11.8247 23.1436 11.9112 23.2109L12.0698 23.3359L12.1756 23.2398C12.4171 23.0211 12.6468 22.8146 12.8608 22.6235V24.1107C12.7206 24.2269 12.6196 24.3064 12.5793 24.3309C12.3246 24.4799 11.8487 24.4991 11.5843 24.3645C11.493 24.3213 10.921 23.8406 10.3105 23.2974C9.7049 22.7543 9.19538 22.312 9.18096 22.312C9.16654 22.312 8.66183 22.7543 8.05137 23.2974C7.44572 23.8406 6.86891 24.3213 6.77758 24.3645C6.51321 24.4991 6.03734 24.4799 5.78259 24.3309C5.67203 24.2636 5.10483 23.7829 4.52322 23.2638C3.9416 22.7399 3.45131 22.312 3.43689 22.312C3.41766 22.312 3.04754 22.6245 2.61494 23.0138C1.62475 23.8839 1.56707 23.9223 1.12965 23.9223C0.850859 23.9223 0.754724 23.8983 0.572068 23.7925C0.293276 23.6291 0.11062 23.3647 0.0481318 23.0379C-0.0191627 22.6774 -0.0143559 2.1333 0.0529386 1.83529C0.197141 1.20079 0.855666 0.830674 1.47574 1.03736C1.65839 1.09985 1.90354 1.28251 2.56206 1.85932C3.02832 2.26789 3.42247 2.60437 3.43689 2.60437C3.45131 2.60437 3.93679 2.18137 4.5136 1.66224Z" fill="#33D043"/>
<path fill-rule="evenodd" clip-rule="evenodd" d="M24.9544 14.8716C25.2355 15.1527 25.2355 15.6085 24.9544 15.8896L17.0651 23.779C16.9261 23.918 16.7444 23.9882 16.5622 23.9898C16.3719 23.9946 16.18 23.9244 16.0347 23.7792L12.3958 20.1402C12.1147 19.8591 12.1147 19.4034 12.3958 19.1223C12.6769 18.8411 13.1326 18.8411 13.4137 19.1223L16.5498 22.2583L23.9365 14.8716C24.2176 14.5905 24.6733 14.5905 24.9544 14.8716Z" fill="#33D043"/>
</svg>
