<svg width="22" height="27" viewBox="0 0 22 27" fill="none" xmlns="http://www.w3.org/2000/svg">
<path d="M3.58219 9.04164C3.18735 9.2129 3.16356 9.83608 3.54889 10.0073C3.63452 10.0502 4.4908 10.0644 6.622 10.0644H9.57618L9.73317 9.89317C9.91869 9.69813 9.94724 9.4793 9.81404 9.25096C9.64278 8.96553 9.70462 8.97029 6.57918 8.97029C4.26722 8.97504 3.70587 8.98456 3.58219 9.04164Z" fill="#DB5252"/>
<path d="M3.67736 12.3336C3.52989 12.3621 3.30155 12.6 3.273 12.7522C3.21592 13.0424 3.42048 13.3516 3.71542 13.4134C3.91046 13.4515 14.262 13.4515 14.457 13.4134C14.5427 13.3944 14.6711 13.3183 14.752 13.2422C14.8661 13.1233 14.8899 13.0614 14.8899 12.8711C14.8899 12.6809 14.8661 12.619 14.752 12.5001C14.6711 12.424 14.5427 12.3479 14.457 12.3288C14.2905 12.2955 3.84862 12.3003 3.67736 12.3336Z" fill="#DB5252"/>
<path d="M3.52994 15.7397C3.27305 15.8824 3.18742 16.263 3.34917 16.5151C3.52994 16.7815 3.29684 16.772 9.08627 16.772C14.871 16.772 14.6426 16.7815 14.8186 16.5151C14.9851 16.263 14.8852 15.8491 14.6236 15.735C14.4428 15.6493 3.68217 15.6588 3.52994 15.7397Z" fill="#DB5252"/>
<path fill-rule="evenodd" clip-rule="evenodd" d="M4.46701 2.18661C5.61348 1.15907 5.65154 1.13052 5.89415 1.04014C6.10823 0.959267 6.4888 0.983052 6.70762 1.08771C6.79801 1.13052 7.14052 1.40644 7.46877 1.69662C7.61923 1.82964 7.80268 1.99365 7.98338 2.15519C8.19688 2.34606 8.40653 2.5335 8.55339 2.66232C8.81979 2.90018 9.05289 3.09998 9.07668 3.10474C9.09571 3.11425 9.60472 2.68135 10.2041 2.14379C10.8083 1.60624 11.3744 1.13052 11.4648 1.08771C11.7264 0.95451 12.1974 0.973538 12.4495 1.12101C12.5589 1.18761 13.1202 1.66332 13.6959 2.17709C14.2715 2.69562 14.7567 3.11901 14.771 3.11901C14.7852 3.11901 15.1753 2.78601 15.6368 2.38165C16.5597 1.56818 16.7452 1.46352 17.1828 1.51585C17.4635 1.54915 17.787 1.72992 17.9154 1.91545C17.9401 1.95248 17.9622 1.97815 17.982 2.00548C18.1602 2.25204 18.15 2.63493 18.1628 12.7284C18.1652 14.5754 18.1661 16.164 18.1655 17.5078H17.025C17.0375 11.479 17.0382 2.6842 17.0163 2.66232C17.0116 2.65281 16.6358 2.97629 16.1791 3.38065C15.3228 4.14179 15.1278 4.26072 14.7519 4.26072C14.3714 4.26072 13.9623 3.94675 12.0737 2.22466L11.9452 2.10574L11.7882 2.22942C11.7026 2.29602 11.2126 2.72892 10.7036 3.19036C10.1946 3.65181 9.69035 4.07519 9.58569 4.13228C9.44773 4.20363 9.30978 4.23218 9.08619 4.23218C8.69611 4.23218 8.52485 4.14655 7.99205 3.66132C7.88507 3.56572 7.72036 3.41784 7.53806 3.25416C7.33936 3.07576 7.11976 2.8786 6.93121 2.70989C6.56967 2.38641 6.2557 2.12001 6.24143 2.12001C6.2224 2.12001 5.72765 2.55291 5.13777 3.08095C4.03887 4.06568 3.75344 4.26072 3.42044 4.26072C3.04939 4.26072 2.84959 4.14179 1.9933 3.38065C1.53662 2.98105 1.15605 2.66232 1.14653 2.67184C1.1275 2.69086 1.13702 23.0657 1.1608 23.0847C1.16556 23.0895 1.53662 22.766 1.9933 22.3616C2.84959 21.6005 3.04463 21.4816 3.42044 21.4816C3.80101 21.4816 4.1245 21.7289 6.1225 23.5414L6.22715 23.6365L6.38414 23.5128C6.46977 23.4462 6.95975 23.0133 7.46877 22.5519C7.97778 22.0905 8.48204 21.6671 8.58669 21.61C8.72465 21.5386 8.86261 21.5101 9.08619 21.5101C9.30978 21.5101 9.44773 21.5386 9.58569 21.61C9.69035 21.6671 10.1946 22.0905 10.7036 22.5519C11.2126 23.0133 11.7026 23.4462 11.7882 23.5128L11.9452 23.6365L12.0499 23.5414C12.289 23.325 12.5162 23.1206 12.728 22.9315V24.4034C12.5893 24.5184 12.4894 24.597 12.4495 24.6213C12.1974 24.7687 11.7264 24.7878 11.4648 24.6546C11.3744 24.6117 10.8083 24.136 10.2041 23.5985C9.60472 23.0609 9.10046 22.6233 9.08619 22.6233C9.07192 22.6233 8.57242 23.0609 7.96827 23.5985C7.36887 24.136 6.79801 24.6117 6.70762 24.6546C6.44598 24.7878 5.97503 24.7687 5.7229 24.6213C5.61348 24.5547 5.05214 24.0789 4.47653 23.5652C3.90091 23.0466 3.41569 22.6233 3.40142 22.6233C3.38239 22.6233 3.01609 22.9325 2.58795 23.3178C1.60798 24.1788 1.55089 24.2169 1.11799 24.2169C0.842077 24.2169 0.746934 24.1931 0.566163 24.0885C0.290249 23.9267 0.109478 23.6651 0.047635 23.3416C-0.0189649 22.9848 -0.0142077 2.65281 0.0523921 2.35786C0.195106 1.72992 0.846834 1.36362 1.4605 1.56818C1.64128 1.63002 1.88389 1.81079 2.53562 2.38165C2.99706 2.78601 3.38714 3.11901 3.40142 3.11901C3.41569 3.11901 3.89616 2.70038 4.46701 2.18661Z" fill="#DB5252"/>
<path fill-rule="evenodd" clip-rule="evenodd" d="M21.5923 17.9621C21.8705 18.2403 21.8705 18.6914 21.5923 18.9696L18.1915 22.3704L21.5919 25.7708C21.8701 26.049 21.8701 26.5001 21.5919 26.7783C21.3137 27.0565 20.8627 27.0565 20.5845 26.7783L17.184 23.3778L13.7843 26.7775C13.5061 27.0557 13.0551 27.0557 12.7769 26.7775C12.4987 26.4993 12.4987 26.0483 12.7769 25.7701L16.1765 22.3704L12.7765 18.9704C12.4983 18.6922 12.4983 18.2411 12.7765 17.9629C13.0547 17.6847 13.5058 17.6847 13.784 17.9629L17.184 21.3629L20.5848 17.9621C20.863 17.6839 21.3141 17.6839 21.5923 17.9621Z" fill="#DB5252"/>
</svg>
