<svg width="92" height="27" viewBox="0 0 92 27" fill="none" xmlns="http://www.w3.org/2000/svg">
<path d="M10.0126 0.297995C8.60331 0.65782 6.75155 1.47561 5.6536 2.21161C4.42456 3.06211 2.68751 4.91031 1.85176 6.26783C1.4093 6.98748 0.802975 8.27959 0.524392 9.13008C0.0327745 10.6021 0 10.8147 0 13.1372C0 15.4597 0.0327745 15.6724 0.524392 17.1444C1.17988 19.1234 2.34338 21.0043 3.80184 22.4436C5.71915 24.3409 7.5873 25.3713 10.1765 25.9928C12.0774 26.4508 15.109 26.369 16.8625 25.8129C21.4345 24.3736 24.8922 20.7426 25.9574 16.2939C26.3671 14.5602 26.4162 12.025 26.0557 10.324C25.0725 5.69538 21.6148 1.96628 16.8625 0.461552C15.191 -0.0781879 11.7988 -0.159966 10.0126 0.297995ZM13.6997 3.84719C11.6349 9.19551 10.4878 12.0741 10.3895 12.0741C10.3404 12.0741 9.75041 10.6512 9.07854 8.91746C8.42305 7.20011 7.78394 5.54818 7.65285 5.25378L7.43981 4.73039L8.63608 4.15794C10.1765 3.40558 11.34 3.09482 12.7984 3.09482L13.9947 3.07847L13.6997 3.84719ZM18.2062 4.40328C18.5831 4.63226 18.747 4.84488 18.6979 5.0248C18.6487 5.172 17.7474 7.49451 16.6986 10.1932C15.6498 12.8919 14.4372 15.9995 14.0275 17.0953C13.6014 18.2075 13.2081 19.1071 13.1426 19.1071C13.0934 19.1071 12.8312 18.6 12.5854 17.9622L12.143 16.8336L14.7321 10.5694C16.1414 7.11833 17.3377 4.25608 17.3869 4.1743C17.4852 3.99439 17.5835 4.0271 18.2062 4.40328ZM4.94895 8.26323C5.11282 8.7539 8.9966 18.1584 10.1601 20.8735C10.5534 21.8058 10.8811 22.6726 10.8811 22.8035C10.8811 22.9834 10.6517 22.9343 9.81596 22.6399C6.83348 21.5604 4.39178 19.0744 3.49048 16.163C3.01525 14.6583 2.91693 12.6139 3.24468 11.1091C3.50687 9.83338 4.35901 7.82163 4.6212 7.82163C4.71953 7.82163 4.85063 8.01789 4.94895 8.26323ZM22.3358 8.95017C23.188 10.9456 23.4338 13.6279 22.9258 15.5906C22.1228 18.7472 19.763 21.3805 16.6658 22.5745C15.994 22.8362 15.404 23.0161 15.3549 22.967C15.2893 22.9016 21.1887 8.44314 21.4837 7.93612C21.6148 7.70714 21.9753 8.13239 22.3358 8.95017Z" fill="#222222"/>
<path d="M47.4902 1.86815C46.1301 2.53874 46.0809 4.76312 47.4247 5.45006C48.8996 6.20242 50.5383 5.27015 50.5383 3.65093C50.5383 2.08078 48.9487 1.1485 47.4902 1.86815Z" fill="#222222"/>
<path d="M59.9282 7.65807C58.9941 7.85434 58.4042 8.18145 57.6995 8.9011L57.1096 9.50626L56.9949 8.67212L56.8801 7.82162H55.2742H53.6519V15.0181V22.2147H55.3561H57.0768L57.126 17.7495C57.1751 13.5298 57.1915 13.2681 57.5356 12.6302C58.7975 10.2913 61.6488 10.2096 62.8123 12.483C63.2384 13.2844 63.2384 13.3335 63.2876 17.7495L63.3367 22.2147H65.041H66.7453L66.7944 17.8313C66.8436 13.0718 66.8764 12.941 67.8924 11.8615C68.5151 11.1745 69.105 10.9292 70.0719 10.9292C71.1371 10.9292 71.9728 11.4362 72.4317 12.3522C72.7102 12.9083 72.743 13.448 72.7922 17.586L72.8413 22.2147H74.6275H76.4301V18.0767C76.4301 12.205 76.1188 10.7657 74.5456 9.19551C73.4968 8.14874 72.1367 7.65807 70.3013 7.65807C68.4495 7.65807 67.5482 8.00154 66.3356 9.17915L65.3032 10.1932L64.7624 9.37542C63.8611 8.00154 61.7963 7.26553 59.9282 7.65807Z" fill="#222222"/>
<path d="M85.6234 7.82162C85.2137 8.00154 84.6074 8.4595 84.2796 8.81932L83.6569 9.48991L83.5586 8.85203C83.3783 7.77256 83.4439 7.82162 81.756 7.82162H80.1992V15.0181V22.2147H81.9035H83.6242L83.6733 17.7495L83.7225 13.3008L84.1649 12.5321C85.0662 11.011 87.3768 10.4549 89.1303 11.3381C89.7366 11.6325 89.966 11.6816 90.0643 11.5344C90.1299 11.4199 90.4904 10.7657 90.8673 10.0624C91.6211 8.6067 91.6375 8.62305 90.1954 7.93611C89.0975 7.42908 86.623 7.36366 85.6234 7.82162Z" fill="#222222"/>
<path d="M28.8088 8.09969C28.8744 8.26325 30.2509 11.5344 31.8896 15.378L34.8721 22.3782H36.773H38.6903L40.0177 19.2216C40.7387 17.5042 42.1153 14.2494 43.0657 12.0087C44.0162 9.75162 44.8028 7.90342 44.8028 7.87071C44.8028 7.838 43.9506 7.838 42.9019 7.85436L40.9846 7.90342L39.8866 10.6021C39.2803 12.0905 38.3626 14.4948 37.8218 15.9504C37.2974 17.4225 36.8222 18.6164 36.773 18.6164C36.7239 18.6164 36.1667 17.2425 35.5604 15.5415C34.9377 13.8569 33.9872 11.4363 33.4464 10.1442L32.4632 7.82164H30.595C28.8744 7.82164 28.7105 7.838 28.8088 8.09969Z" fill="#222222"/>
<path d="M46.7692 15.0181V22.2147H48.4899H50.2106V15.0181V7.82162H48.4899H46.7692V15.0181Z" fill="#222222"/>
</svg>
